<?xml version="1.0" encoding="utf-8"?>
<!-- Generator: Adobe Illustrator 25.2.0, SVG Export Plug-In . SVG Version: 6.00 Build 0)  -->
<svg version="1.1" id="Layer_1" xmlns="http://www.w3.org/2000/svg" xmlns:xlink="http://www.w3.org/1999/xlink" x="0px" y="0px"
	 viewBox="0 0 579.6 182" style="enable-background:new 0 0 579.6 182;" xml:space="preserve">
<path d="M94.6,101.1c24.4-4.9,37.2-19,37.2-41.6c0-28.1-20.3-43.4-58.5-43.4H18.9v148.3h17.2v-61.4H72l43.4,61.4H136l-41.4-58V101.1
	z M36.1,87V37.8l6-6h30.7c28.4,0,41.4,9.9,41.4,27.6c0,17.7-13,27.6-41.4,27.6H36.1z"/>
<polygon points="178.6,115.3 178.6,78.5 240.2,78.5 240.2,65.7 178.6,65.7 178.6,33.5 183.3,28.8 249.2,28.8 249.2,16 165,16 
	165,132.8 251.2,132.8 251.2,120 183.3,120 "/>
<polygon points="280.8,25.9 311.7,25.9 315.2,29.4 315.2,104.7 325.9,104.7 325.9,29.4 329.4,25.9 360.3,25.9 360.3,16 280.8,16 "/>
<path d="M445.8,16H439c-0.2,0-0.3,0.1-0.4,0.2c-0.1,0.1-0.2,0.3-0.2,0.4v35.9c0,5.1-1.6,9-4.3,11.7c-2.7,2.7-6.4,4.2-10.8,4.2
	c-4.3,0-8-1.5-10.7-4.2c-2.7-2.7-4.3-6.6-4.3-11.6v-36c0-0.2-0.1-0.3-0.2-0.4c-0.1-0.1-0.3-0.2-0.4-0.2H401c-0.2,0-0.3,0.1-0.4,0.2
	s-0.2,0.3-0.2,0.4v36.8c0,6.9,2.5,12.6,6.7,16.5c4.2,3.9,9.9,6.1,16.3,6.1c6.4,0,12.2-2.2,16.4-6.1c4.2-3.9,6.7-9.6,6.7-16.5V16.6
	c0-0.2-0.1-0.3-0.2-0.4C446.1,16.1,446,16,445.8,16z"/>
<path d="M504.8,34.1c2.2-0.5,4-1.5,5.3-2.9c1.4-1.5,2.1-3.5,2.1-5.9c0-2.9-1.1-5.4-3.2-7c-2.1-1.6-5.2-2.4-9.1-2.4h-11.5v30.8h4.9
	V46V34.7h6l8.6,12.1h5.9l-8.9-12.4V34.1z M493.3,21.4l0.7-0.7h5.7c2.7,0,4.6,0.5,5.8,1.3c0.6,0.4,1,0.9,1.2,1.4
	c0.3,0.6,0.4,1.2,0.4,2c0,0.8-0.1,1.4-0.4,2c-0.4,0.8-1.1,1.5-2.2,2c-1.1,0.5-2.7,0.7-4.8,0.7h-6.5V21.4z"/>
<path d="M562.9,16.2c-0.1-0.1-0.3-0.2-0.4-0.2h-1.8c-0.2,0-0.3,0.1-0.4,0.2c-0.1,0.1-0.2,0.3-0.2,0.4v11.1l-6.8-11.4
	c-0.1-0.2-0.3-0.3-0.5-0.3h-2.6c-0.2,0-0.3,0.1-0.4,0.2c-0.1,0.1-0.2,0.3-0.2,0.4v15.9c0,0.2,0.1,0.3,0.2,0.4
	c0.1,0.1,0.3,0.2,0.4,0.2h1.8c0.2,0,0.3-0.1,0.4-0.2c0.1-0.1,0.2-0.3,0.2-0.4V20.7l7.3,12.1c0.1,0.2,0.3,0.3,0.5,0.3h2.2
	c0.2,0,0.3-0.1,0.4-0.2c0.1-0.1,0.2-0.3,0.2-0.4V16.6C563.1,16.5,563,16.3,562.9,16.2z"/>
</svg>
