<?xml version="1.0" encoding="utf-8"?>
<!-- Generator: Adobe Illustrator 25.2.0, SVG Export Plug-In . SVG Version: 6.00 Build 0)  -->
<svg version="1.1" id="Layer_1" xmlns="http://www.w3.org/2000/svg" xmlns:xlink="http://www.w3.org/1999/xlink" x="0px" y="0px"
	 viewBox="0 0 560.1 172.5" style="enable-background:new 0 0 560.1 172.5;" xml:space="preserve">
<path d="M349.4,6.2h-79.5c-2.7,0-4.9,2.2-4.9,4.9c0,2.7,2.2,4.9,4.9,4.9h31l3.5,3.5v75.3c0,2.9,2.4,5.3,5.3,5.3
	c2.9,0,5.3-2.4,5.3-5.3V19.5l3.5-3.5h31c2.7,0,4.9-2.2,4.9-4.9C354.3,8.4,352.1,6.2,349.4,6.2z"/>
<path d="M431.5,6.2c-2.1,0-3.9,1.7-4,3.8c0,0,0,0.1,0,0.1V46c0,5.1-1.6,9-4.3,11.7c-2.7,2.7-6.4,4.2-10.8,4.2c-4.3,0-8-1.5-10.7-4.2
	c-2.7-2.7-4.3-6.6-4.3-11.6v-36c0,0,0,0,0,0c0-2.1-1.8-3.9-3.9-3.9c-2.1,0-3.9,1.7-3.9,3.9c0,0,0,0,0,0v36.8
	c0,6.9,2.5,12.6,6.7,16.5c4.2,3.9,9.9,6.1,16.3,6.1c6.4,0,12.2-2.2,16.4-6.1c4.2-3.9,6.7-9.6,6.7-16.5V10.1c0,0,0-0.1,0-0.1
	C435.3,7.9,433.6,6.2,431.5,6.2z"/>
<path d="M240.3,110.1L240.3,110.1l-68,0l-4.7-4.7V68.7h61.6v0c3.5,0,6.3-2.9,6.3-6.4c0-3.5-2.8-6.4-6.3-6.4v0h-61.6V23.6l4.7-4.7
	h65.9v0c3.5,0,6.4-2.9,6.4-6.4c0-3.5-2.8-6.4-6.4-6.4v0H154v116.8h86.3c3.5,0,6.4-2.9,6.4-6.4C246.7,113,243.8,110.1,240.3,110.1z"
	/>
<path d="M552.2,7.7c0-0.8-0.7-1.5-1.5-1.5s-1.5,0.7-1.5,1.5l0,0l0,0v11.1l-7.8-12c-0.3-0.4-0.7-0.7-1.3-0.7c-0.8,0-1.5,0.7-1.5,1.5
	l0,0l0,0v15.9l0,0l0,0c0,0.8,0.7,1.5,1.5,1.5s1.5-0.7,1.5-1.5l0,0l0,0V11.8l7.9,12.7l0,0c0.3,0.4,0.7,0.6,1.2,0.6
	c0.8,0,1.5-0.7,1.5-1.5l0,0l0,0V7.7L552.2,7.7L552.2,7.7z"/>
<path d="M493.9,24.3c2.2-0.5,4-1.5,5.2-2.9c1.4-1.5,2.1-3.5,2.1-5.9c0-2.9-1.1-5.4-3.2-7c-2.1-1.6-5.2-2.4-9.1-2.4h-11.5v30.8
	c0,1.4,1.1,2.4,2.4,2.4s2.4-1.1,2.4-2.4v-0.8V24.8h5.9l9.5,13.5c0.8,1.1,2.4,1.4,3.5,0.6c1.1-0.8,1.4-2.4,0.6-3.5L493.9,24.3z
	 M488.8,20.2h-6.5v-8.6l0.7-0.7h5.7c2.7,0,4.6,0.5,5.8,1.3c0.6,0.4,1,0.9,1.2,1.4c0.3,0.6,0.4,1.2,0.4,2c0,0.8-0.1,1.4-0.4,2
	c-0.4,0.8-1.1,1.5-2.2,2C492.4,19.9,490.9,20.2,488.8,20.2z"/>
<path d="M83.7,96v-4.7c24.4-4.9,37.2-19,37.2-41.6c0-28.1-20.3-43.4-58.5-43.4H8v148.3c0,4.7,3.8,8.6,8.6,8.6c4.7,0,8.6-3.8,8.6-8.6
	V93h35.6l46.9,66.3c2.7,3.8,8,4.7,11.8,2c3.8-2.7,4.7-8,2-11.8L83.7,96z M25.1,28l6-6h30.7c28.4,0,41.4,9.9,41.4,27.6
	c0,17.7-13,27.6-41.4,27.6H25.1V28z"/>
</svg>
